<?xml version="1.0" encoding="UTF-8"?>
<!DOCTYPE svg PUBLIC "-//W3C//DTD SVG 1.1//EN" "http://www.w3.org/Graphics/SVG/1.1/DTD/svg11.dtd">
<!-- Creator: CorelDRAW 2021.5 -->
<svg xmlns="http://www.w3.org/2000/svg" xml:space="preserve" width="594mm" height="841mm" version="1.1" style="shape-rendering:geometricPrecision; text-rendering:geometricPrecision; image-rendering:optimizeQuality; fill-rule:evenodd; clip-rule:evenodd"
viewBox="0 0 59400 84100"
 xmlns:xlink="http://www.w3.org/1999/xlink"
 xmlns:xodm="http://www.corel.com/coreldraw/odm/2003">
 <defs>
  <style type="text/css">
   <![CDATA[
    .str0 {stroke:#E31E24;stroke-width:20;stroke-miterlimit:22.9256}
    .fil0 {fill:#E31E24}
   ]]>
  </style>
 </defs>
 <g id="Layer_x0020_1">
  <metadata id="CorelCorpID_0Corel-Layer"/>
  <path class="fil0 str0" d="M4284.9 32701.25l52589.74 0c267.06,0 485.57,218.51 485.57,485.57l0 11853.75c0,267.07 -218.51,485.57 -485.57,485.57l-52589.74 0c-267.06,0 -485.57,-218.5 -485.57,-485.57l0 -11853.75c0,-267.06 218.51,-485.57 485.57,-485.57zm44327.75 880.83l6324.08 0c267.06,0 938.6,218.99 938.6,485.57l0 10045.97c0,267.06 -672.03,485.57 -938.6,485.57l-6324.08 0c-267.06,0 -485.57,-218.51 -485.57,-485.57l0 -10045.97c0,-267.07 218.51,-485.57 485.57,-485.57zm-8594.6 0l6324.07 0c267.07,0 485.58,218.5 485.58,485.57l0 10045.97c0,267.06 -218.51,485.57 -485.58,485.57l-6324.07 0c-267.06,0 -485.57,-218.51 -485.57,-485.57l0 -10045.97c0,-267.07 218.51,-485.57 485.57,-485.57zm-8367.35 0l6324.07 0c267.06,0 485.57,218.5 485.57,485.57l0 10045.97c0,267.06 -218.51,485.57 -485.57,485.57l-6324.07 0c-267.07,0 -485.57,-218.51 -485.57,-485.57l0 -10045.97c0,-267.07 218.5,-485.57 485.57,-485.57zm-8594.61 0l6324.08 0c267.06,0 485.57,218.5 485.57,485.57l0 10045.97c0,267.06 -218.51,485.57 -485.57,485.57l-6324.08 0c-267.06,0 -485.57,-218.51 -485.57,-485.57l0 -10045.97c0,-267.07 218.51,-485.57 485.57,-485.57zm-8650.92 0l6324.07 0c267.06,0 485.57,218.5 485.57,485.57l0 10045.97c0,267.06 -218.51,485.57 -485.57,485.57l-6324.07 0c-267.07,0 -485.57,-218.51 -485.57,-485.57l0 -10045.97c0,-267.07 218.5,-485.57 485.57,-485.57zm-9251.1 0l6980.57 0c267.06,0 485.57,218.99 485.57,485.57l0 10045.97c0,267.06 -218.99,485.57 -485.57,485.57l-6980.57 0c-267.06,0 -485.57,-218.51 -485.57,-485.57l0 -10045.97c0,-267.07 218.51,-485.57 485.57,-485.57z"/>
 </g>
</svg>
